<svg xmlns="http://www.w3.org/2000/svg" xml:space="preserve" style="enable-background:new 0 0 841.89 595.28" viewBox="0 0 841.89 595.28"><path d="M239.19 220.31c-19.14 5.57-36.44 15.48-50.71 28.6l-11.03-25.68-31.25 71.63 10.23.11c-6.02 14.81-9.34 31.01-9.34 47.96 0 2.46.08 4.9.21 7.31h-22.09l-14.51 34.73H41.3l.08-.16 120.49-269.02h29.03l48.29 104.52z" style="fill:#295adc"/><path d="M395.7 342.92c0 66.7-54.28 120.95-120.97 120.95-64.21 0-116.93-50.34-120.73-113.64-.13-2.41-.21-4.85-.21-7.31 0-17 3.53-33.2 9.91-47.9 6.48-14.99 15.93-28.44 27.61-39.57 14.08-13.47 31.44-23.56 50.71-29 10.42-2.92 21.39-4.47 32.72-4.47 54.22 0 100.22 35.85 115.54 85.09H325c-11.17-15.66-29.53-25.89-50.26-25.89-1.77 0-3.53.08-5.27.24l.05.11c-20.86 1.71-38.77 13.9-48.52 31.25l-.05-.13c-5.06 8.94-7.95 19.28-7.95 30.28 0 34.11 27.63 61.77 61.75 61.77 20.24 0 38.18-9.72 49.46-24.77h-74.95l-22.63-53.79c6.85-19.63 25.41-33.82 47.26-34.14l14.41 34.57 106.33.03c.69 5.31 1.07 10.77 1.07 16.32z" style="fill:#ffcf00"/><path d="M647.1 218.09c-19.14 5.57-36.44 15.48-50.71 28.6l-11.03-25.68-31.25 71.63 10.23.11c-6.02 14.81-9.34 31.01-9.34 47.96 0 2.46.08 4.9.21 7.31h-22.09l-14.51 34.73h-69.4l.08-.16 120.49-269.02h29.03l48.29 104.52z"/><path d="M803.61 340.7c0 66.7-54.28 120.95-120.97 120.95-64.21 0-116.93-50.34-120.73-113.64-.13-2.41-.21-4.85-.21-7.31 0-17 3.53-33.2 9.91-47.9 6.48-14.99 15.93-28.44 27.61-39.57 14.08-13.47 31.44-23.56 50.71-29 10.42-2.92 21.39-4.47 32.72-4.47 54.22 0 100.22 35.85 115.54 85.09h-65.28c-11.17-15.66-29.53-25.89-50.26-25.89-1.77 0-3.53.08-5.27.24l.05.11c-20.86 1.71-38.77 13.9-48.52 31.25l-.05-.13c-5.06 8.94-7.95 19.28-7.95 30.28 0 34.11 27.63 61.77 61.75 61.77 20.24 0 38.18-9.72 49.46-24.77h-74.95l-22.63-53.79c6.85-19.63 25.41-33.82 47.26-34.14l14.41 34.57 106.33.03c.69 5.31 1.07 10.77 1.07 16.32z"/></svg>