<?xml version="1.0" encoding="UTF-8" standalone="no"?><!DOCTYPE svg PUBLIC "-//W3C//DTD SVG 1.1//EN" "http://www.w3.org/Graphics/SVG/1.1/DTD/svg11.dtd"><svg width="100%" height="100%" viewBox="0 0 2004 362" version="1.1" xmlns="http://www.w3.org/2000/svg" xmlns:xlink="http://www.w3.org/1999/xlink" xml:space="preserve" xmlns:serif="http://www.serif.com/" style="fill-rule:evenodd;clip-rule:evenodd;stroke-linejoin:round;stroke-miterlimit:2;"><path d="M316.646,156.112l-247.746,0l0,-71.837l247.746,0l0,71.837Zm-123.879,116.042l-123.867,0l0,-71.833l123.867,0l0,71.833Zm-192.767,89.804l373.008,0l0,-361.958l-373.008,0l0,361.958Z" style="fill:#434244;fill-rule:nonzero;"/><path d="M672.049,122.093c0.963,0 1.796,0.117 2.496,0.329c0.871,0.271 1.188,1.158 0.979,2.667c-0.108,1.246 -0.187,2.541 -0.246,3.887c-0.05,1.359 -0.083,2.779 -0.083,4.296l0,2.825c0.108,4.213 0.279,8.046 0.483,11.496c0,0.487 -0.279,0.879 -0.846,1.175c-0.566,0.296 -1.199,0.446 -1.904,0.446c-0.587,0 -1.154,-0.121 -1.691,-0.363c-0.546,-0.246 -0.9,-0.658 -1.054,-1.258c-0.763,-4.317 -1.513,-7.692 -2.263,-10.117c-0.762,-2.421 -1.842,-4.25 -3.242,-5.454c-1.408,-1.221 -3.283,-1.987 -5.629,-2.312c-2.35,-0.321 -5.466,-0.542 -9.341,-0.65l-9.971,0c-2.854,0 -5.159,0.05 -6.909,0.162c-1.766,0.108 -3.12,0.504 -4.091,1.208c-0.975,0.713 -1.621,1.83 -1.942,3.359c-0.325,1.546 -0.479,3.716 -0.479,6.521l0,30.345c0,1.525 0.254,2.48 0.8,2.884c0.537,0.408 1.079,0.608 1.621,0.608c5.125,0 9.146,-0.237 12.058,-0.683c2.913,-0.467 5.117,-1.259 6.608,-2.392c1.475,-1.133 2.467,-2.667 2.992,-4.617c0.513,-1.945 0.929,-4.37 1.254,-7.283c0.113,-0.65 0.45,-1.125 1.054,-1.462c0.588,-0.321 1.238,-0.48 1.942,-0.48c0.642,0 1.225,0.159 1.738,0.48c0.508,0.337 0.758,0.812 0.758,1.462c0,1.783 -0.054,3.375 -0.15,4.779c-0.108,1.4 -0.238,2.792 -0.367,4.163c-0.133,1.383 -0.254,2.821 -0.362,4.333c-0.113,1.513 -0.163,3.242 -0.163,5.183c0,3.284 0.163,6.313 0.479,9.063c0.217,1.354 0.367,2.846 0.45,4.492c0.079,1.641 0.113,3.416 0.113,5.295c0,0.6 -0.225,1.017 -0.675,1.259c-0.463,0.241 -0.988,0.366 -1.584,0.366c-0.704,0 -1.391,-0.162 -2.066,-0.491c-0.671,-0.321 -1.054,-0.796 -1.167,-1.454c-0.325,-3.238 -0.742,-5.838 -1.254,-7.805c-0.525,-1.975 -1.517,-3.5 -2.992,-4.579c-1.491,-1.079 -3.696,-1.787 -6.608,-2.146c-2.913,-0.345 -6.933,-0.529 -12.058,-0.529c-0.542,0 -1.084,0.2 -1.621,0.579c-0.546,0.38 -0.8,1.184 -0.8,2.425l0,26.517c0,3.838 0.3,6.879 0.921,9.125c0.625,2.246 1.67,3.996 3.158,5.258c1.483,1.28 3.437,2.171 5.871,2.684c2.421,0.508 5.446,0.937 9.066,1.254c0.755,0 1.313,0.275 1.655,0.8c0.354,0.533 0.529,1.146 0.529,1.837c0,0.742 -0.204,1.405 -0.609,1.996c-0.408,0.584 -0.979,0.875 -1.745,0.875c-2.959,0 -5.717,-0.058 -8.25,-0.162c-2.546,-0.109 -4.884,-0.263 -7.042,-0.488c-2.158,-0.212 -4.267,-0.383 -6.317,-0.491c-2.046,-0.1 -4.075,-0.155 -6.079,-0.155c-4.196,0 -8.337,0.213 -12.412,0.646c-4.084,0.434 -8.059,0.65 -11.942,0.65c-0.65,0 -1.142,-0.279 -1.496,-0.841c-0.358,-0.559 -0.529,-1.205 -0.529,-1.946c0,-0.642 0.15,-1.229 0.442,-1.759c0.291,-0.533 0.825,-0.85 1.583,-0.962c3.125,-0.317 5.671,-0.763 7.65,-1.329c1.962,-0.571 3.504,-1.446 4.617,-2.646c1.108,-1.179 1.858,-2.8 2.262,-4.85c0.4,-2.054 0.604,-4.696 0.604,-7.946l0,-62.375c0,-2.433 -0.071,-4.812 -0.241,-7.167c-0.163,-2.345 -0.534,-4.504 -1.13,-6.483c-0.595,-1.967 -1.458,-3.667 -2.591,-5.104c-1.134,-1.425 -2.704,-2.438 -4.696,-3.042c-1.192,-0.321 -2.463,-0.583 -3.8,-0.804c-1.354,-0.212 -2.625,-0.371 -3.808,-0.483c-0.705,0 -1.217,-0.275 -1.546,-0.817c-0.313,-0.533 -0.479,-1.125 -0.479,-1.779c0,-0.646 0.166,-1.25 0.479,-1.821c0.329,-0.567 0.841,-0.846 1.546,-0.846c1.887,0 3.654,0.029 5.3,0.084c1.641,0.054 3.233,0.133 4.741,0.237c1.509,0.113 3.138,0.192 4.888,0.246c1.754,0.05 3.637,0.075 5.625,0.075l59.508,0Z" style="fill:#434244;fill-rule:nonzero;"/><path d="M741.166,228.138c5.45,0 10.246,-1.425 14.367,-4.292c4.129,-2.85 7.646,-6.638 10.529,-11.338c2.888,-4.683 5.075,-10.091 6.558,-16.22c1.48,-6.125 2.225,-12.509 2.225,-19.146c0,-6.425 -0.583,-12.729 -1.737,-18.896c-1.167,-6.179 -3.067,-11.683 -5.708,-16.517c-2.646,-4.825 -6.18,-8.7 -10.596,-11.616c-4.438,-2.913 -9.859,-4.375 -16.284,-4.375c-5.987,0 -11.158,1.483 -15.5,4.454c-4.345,2.962 -7.904,6.866 -10.683,11.7c-2.779,4.825 -4.833,10.308 -6.158,16.429c-1.321,6.129 -1.984,12.337 -1.984,18.658c0,6.646 0.563,13.05 1.671,19.225c1.104,6.188 2.984,11.621 5.621,16.304c2.65,4.7 6.204,8.488 10.683,11.338c4.475,2.867 10.146,4.292 16.996,4.292m-0.646,6.966c-17.375,0 -30.97,-4.908 -40.787,-14.733c-9.829,-9.829 -14.746,-24.538 -14.746,-44.117c0,-8.366 1.392,-16.087 4.129,-23.154c2.754,-7.071 6.609,-13.154 11.546,-18.254c4.942,-5.1 10.825,-9.05 17.675,-11.854c6.858,-2.813 14.417,-4.217 22.671,-4.217c8.1,0 15.512,1.358 22.262,4.054c6.746,2.696 12.55,6.525 17.409,11.488c4.85,4.966 8.637,10.971 11.329,18.012c2.696,7.046 4.05,14.846 4.05,23.442c0,9.604 -1.467,18.083 -4.383,25.45c-2.909,7.371 -6.888,13.554 -11.938,18.583c-5.042,5.013 -10.937,8.821 -17.679,11.413c-6.746,2.587 -13.929,3.887 -21.538,3.887" style="fill:#434244;fill-rule:nonzero;"/><path d="M825.922,143.951c0,3.35 0.687,6.146 2.066,8.379c1.371,2.242 3.146,4.146 5.3,5.717c2.163,1.562 4.538,2.925 7.134,4.079c2.57,1.167 5.095,2.275 7.516,3.362c4.209,1.992 8.396,4.1 12.542,6.309c4.167,2.204 7.879,4.787 11.171,7.729c3.296,2.946 5.979,6.425 8.021,10.446c2.058,4.016 3.079,8.912 3.079,14.679c0,5.737 -1.196,10.558 -3.567,14.508c-2.371,3.934 -5.462,7.138 -9.271,9.629c-3.796,2.471 -8.079,4.275 -12.829,5.371c-4.742,1.117 -9.492,1.667 -14.242,1.667c-3.137,0 -6.633,-0.475 -10.479,-1.408c-3.858,-0.95 -7.387,-2.367 -10.571,-4.259c-0.587,-0.216 -1.129,-0.429 -1.62,-0.65c-0.48,-0.216 -1.1,-0.321 -1.859,-0.321c-0.812,0 -1.658,0.321 -2.55,0.971c-0.883,0.654 -1.662,1.817 -2.308,3.479c-0.321,0.655 -0.763,1.092 -1.342,1.338c-0.554,0.25 -1.141,0.321 -1.737,0.25c-0.584,-0.088 -1.071,-0.288 -1.446,-0.613c-0.388,-0.32 -0.567,-0.695 -0.567,-1.133c0.321,-2.433 0.613,-5.067 0.884,-7.887c0.275,-2.838 0.408,-5.688 0.408,-8.542c0,-2.858 -0.083,-5.717 -0.25,-8.588c-0.158,-2.858 -0.45,-5.854 -0.888,-8.979c-0.108,-0.646 0.109,-1.196 0.655,-1.658c0.533,-0.458 1.141,-0.717 1.812,-0.779c0.675,-0.046 1.313,0.071 1.904,0.371c0.6,0.295 0.942,0.775 1.054,1.42c0.696,4.525 1.93,8.655 3.688,12.346c1.754,3.692 3.95,6.829 6.596,9.429c2.65,2.584 5.654,4.613 9.025,6.075c3.371,1.45 7.041,2.18 11.046,2.18c2.975,0 5.82,-0.425 8.545,-1.255c2.726,-0.829 5.134,-2.05 7.238,-3.641c2.112,-1.596 3.762,-3.55 4.987,-5.875c1.209,-2.321 1.805,-5.046 1.805,-8.171c0,-4 -0.85,-7.471 -2.579,-10.442c-1.73,-2.971 -3.859,-5.541 -6.396,-7.691c-2.534,-2.155 -5.363,-4.034 -8.467,-5.621c-3.1,-1.596 -6.017,-3.067 -8.775,-4.417c-3.667,-1.667 -7.329,-3.387 -10.971,-5.137c-3.646,-1.755 -6.896,-3.88 -9.754,-6.359c-2.863,-2.475 -5.171,-5.466 -6.954,-8.946c-1.784,-3.483 -2.675,-7.829 -2.675,-13.062c0,-5.296 1.079,-9.725 3.237,-13.325c2.154,-3.583 4.996,-6.488 8.538,-8.704c3.533,-2.204 7.571,-3.817 12.108,-4.813c4.529,-0.996 9.229,-1.496 14.083,-1.496c3.134,0 5.755,0.196 7.888,0.563c2.125,0.379 4.537,1.021 7.237,1.946c1.409,0.433 2.584,0.779 3.534,1.05c0.929,0.271 1.85,0.4 2.708,0.4c1.35,0 2.292,-0.534 2.833,-1.613c0.205,-0.429 0.634,-0.733 1.255,-0.929c0.629,-0.187 1.204,-0.246 1.745,-0.158c0.534,0.075 1.038,0.221 1.492,0.437c0.463,0.221 0.638,0.546 0.525,0.975c-0.587,1.996 -0.975,3.979 -1.125,5.942c-0.166,1.979 -0.25,4.071 -0.25,6.279c0,2.913 0.184,5.529 0.534,7.85c0.341,2.317 0.629,5.075 0.841,8.258c0,0.321 -0.221,0.625 -0.683,0.896c-0.463,0.263 -0.983,0.438 -1.579,0.521c-0.605,0.083 -1.171,0 -1.742,-0.242c-0.563,-0.241 -0.904,-0.637 -1.013,-1.175c-1.075,-4.854 -2.279,-8.854 -3.595,-12.016c-1.334,-3.154 -2.988,-5.613 -4.988,-7.371c-1.991,-1.746 -4.416,-2.963 -7.233,-3.633c-2.842,-0.688 -6.233,-1.021 -10.167,-1.021c-2.804,0 -5.458,0.362 -7.933,1.096c-2.483,0.725 -4.659,1.812 -6.513,3.237c-1.862,1.429 -3.35,3.225 -4.458,5.383c-1.1,2.159 -1.658,4.613 -1.658,7.363" style="fill:#434244;fill-rule:nonzero;"/><path d="M951.878,212.015c0,3.625 0.154,6.463 0.475,8.504c0.329,2.042 1.071,3.638 2.233,4.742c1.167,1.108 2.804,1.912 4.904,2.437c2.109,0.513 4.93,0.925 8.492,1.242c0.65,0.117 1.163,0.463 1.538,1.038c0.379,0.591 0.575,1.216 0.575,1.883c0,0.671 -0.196,1.262 -0.575,1.796c-0.375,0.525 -0.938,0.796 -1.696,0.796c-4.429,0 -8.667,-0.221 -12.713,-0.65c-4.037,-0.434 -8.029,-0.646 -11.975,-0.646c-4.204,0 -8.55,0.212 -13.029,0.646c-4.487,0.429 -8.562,0.65 -12.229,0.65c-0.65,0 -1.129,-0.271 -1.458,-0.796c-0.321,-0.534 -0.475,-1.125 -0.475,-1.796c0,-0.667 0.154,-1.292 0.475,-1.883c0.329,-0.575 0.808,-0.921 1.458,-1.038c3.454,-0.317 6.192,-0.729 8.221,-1.242c2.021,-0.525 3.612,-1.329 4.775,-2.437c1.158,-1.104 1.941,-2.7 2.341,-4.742c0.409,-2.041 0.613,-4.879 0.613,-8.504l0,-73.725c0,-4.046 -1.029,-6.6 -3.079,-7.646c-2.054,-1.058 -5.513,-1.587 -10.367,-1.587c-4.1,0 -7.467,0.296 -10.108,0.896c-2.646,0.591 -4.834,1.7 -6.563,3.32c-1.725,1.617 -3.116,3.792 -4.158,6.55c-1.058,2.759 -2.021,6.346 -2.9,10.767c-0.092,0.642 -0.458,1.079 -1.071,1.296c-0.621,0.225 -1.225,0.296 -1.829,0.242c-0.588,-0.055 -1.129,-0.242 -1.613,-0.567c-0.491,-0.329 -0.733,-0.7 -0.733,-1.138c0.429,-4.1 0.675,-8.275 0.733,-12.541c0.055,-4.259 -0.191,-8.471 -0.733,-12.629c0,-1.234 0.771,-2.075 2.308,-2.513c1.546,-0.433 3.259,-0.646 5.142,-0.646l88.633,0c2.109,0 3.85,0.196 5.217,0.567c1.388,0.375 2.071,1.192 2.071,2.429c-0.217,1.296 -0.4,2.913 -0.567,4.863c-0.162,1.945 -0.25,4.075 -0.25,6.391c0,2.317 0.088,4.696 0.25,7.125c0.167,2.425 0.35,4.746 0.567,6.954c0,0.438 -0.267,0.838 -0.817,1.225c-0.525,0.371 -1.141,0.6 -1.808,0.68c-0.688,0.087 -1.317,0 -1.904,-0.238c-0.596,-0.246 -0.942,-0.696 -1.054,-1.337c-0.65,-4.43 -1.521,-8.038 -2.63,-10.85c-1.104,-2.805 -2.579,-5.013 -4.42,-6.63c-1.83,-1.62 -4.067,-2.729 -6.713,-3.32c-2.646,-0.6 -5.804,-0.896 -9.475,-0.896c-4.958,0 -8.55,0.529 -10.758,1.587c-2.225,1.046 -3.321,3.6 -3.321,7.646l0,73.725Z" style="fill:#434244;fill-rule:nonzero;"/><path d="M1083.02,122.093c0.971,0 1.804,0.117 2.508,0.329c0.863,0.271 1.188,1.158 0.967,2.667c-0.163,0.866 -0.254,1.808 -0.279,2.841c-0.029,1.017 -0.046,2.105 -0.046,3.238l0,2.671c0,2.425 0.092,4.783 0.25,7.079c0.154,2.287 0.242,4.571 0.242,6.837c0,0.438 -0.28,0.767 -0.85,1.013c-0.575,0.246 -1.171,0.358 -1.821,0.358c-0.596,0 -1.15,-0.096 -1.663,-0.316c-0.508,-0.209 -0.825,-0.559 -0.929,-1.055c-0.758,-4.262 -1.537,-7.616 -2.342,-10.075c-0.816,-2.462 -1.933,-4.316 -3.37,-5.583c-1.43,-1.267 -3.309,-2.062 -5.675,-2.387c-2.334,-0.321 -5.455,-0.542 -9.342,-0.65l-9.95,0c-3.188,0 -5.667,0.05 -7.45,0.162c-1.775,0.108 -3.121,0.504 -4,1.208c-0.888,0.713 -1.45,1.83 -1.671,3.359c-0.208,1.546 -0.316,3.716 -0.316,6.521l0,28.97c0,1.584 0.274,2.546 0.816,2.925c0.529,0.38 1.067,0.571 1.613,0.571c5.129,0 9.141,-0.25 12.062,-0.691c2.913,-0.455 5.109,-1.259 6.6,-2.384c1.484,-1.137 2.471,-2.671 2.992,-4.579c0.508,-1.921 0.933,-4.333 1.25,-7.242c0.112,-0.595 0.471,-1.045 1.087,-1.337c0.634,-0.3 1.292,-0.45 1.996,-0.45c0.642,0 1.217,0.15 1.688,0.45c0.5,0.292 0.737,0.742 0.737,1.337c0,1.775 -0.054,3.359 -0.162,4.725c-0.104,1.384 -0.229,2.755 -0.367,4.138c-0.138,1.371 -0.254,2.817 -0.358,4.329c-0.113,1.513 -0.163,3.238 -0.163,5.179c0,3.396 0.163,6.429 0.488,9.067c0.216,1.346 0.362,2.846 0.437,4.492c0.079,1.641 0.125,3.441 0.125,5.387c0,0.538 -0.266,0.938 -0.812,1.208c-0.542,0.275 -1.138,0.413 -1.78,0.413c-0.708,0 -1.333,-0.138 -1.9,-0.413c-0.575,-0.27 -0.904,-0.67 -1.016,-1.208c-0.317,-3.242 -0.742,-5.862 -1.25,-7.858c-0.521,-1.992 -1.508,-3.563 -2.992,-4.696c-1.492,-1.129 -3.687,-1.9 -6.6,-2.304c-2.921,-0.4 -6.933,-0.604 -12.062,-0.604c-0.546,0 -1.084,0.204 -1.613,0.604c-0.542,0.404 -0.817,1.2 -0.817,2.387l0,21.771c0,5.075 0.23,9.075 0.688,11.975c0.458,2.921 1.487,5.125 3.075,6.608c1.592,1.48 3.908,2.43 6.962,2.834c3.038,0.404 7.134,0.604 12.263,0.604c2.75,0 5.283,-0.104 7.571,-0.329c2.283,-0.213 4.037,-0.534 5.216,-0.963c2.163,-0.812 4.051,-1.671 5.671,-2.6c1.621,-0.912 2.992,-2.071 4.125,-3.466c1.138,-1.409 2.054,-3.192 2.75,-5.342c0.709,-2.171 1.271,-4.892 1.709,-8.179c0.1,-0.596 0.466,-1.034 1.091,-1.304c0.617,-0.267 1.309,-0.392 2.071,-0.392c0.8,0 1.529,0.158 2.171,0.483c0.65,0.313 0.929,0.779 0.821,1.371c-0.55,4.7 -1.05,9.042 -1.508,13.033c-0.455,3.988 -0.634,8.088 -0.525,12.3c0,0.159 -0.034,0.38 -0.125,0.65c-0.071,0.267 -0.255,0.534 -0.521,0.759c-0.271,0.254 -0.659,0.466 -1.167,0.658c-0.521,0.183 -1.183,0.279 -1.987,0.279l-60.146,0c-4.204,0 -8.325,0.113 -12.35,0.325c-4.021,0.225 -7.638,0.434 -10.879,0.65c-0.7,0 -1.25,-0.291 -1.621,-0.875c-0.375,-0.591 -0.567,-1.254 -0.567,-1.996c0,-0.583 0.154,-1.145 0.446,-1.675c0.296,-0.533 0.821,-0.85 1.579,-0.962c2.588,-0.317 4.842,-0.779 6.763,-1.413c1.908,-0.625 3.487,-1.508 4.733,-2.67c1.242,-1.167 2.154,-2.646 2.75,-4.459c0.587,-1.804 0.887,-4.066 0.887,-6.762l0,-63.842c0,-2.433 -0.075,-4.812 -0.241,-7.167c-0.159,-2.345 -0.538,-4.495 -1.129,-6.441c-0.588,-1.946 -1.459,-3.617 -2.596,-5.021c-1.134,-1.408 -2.696,-2.379 -4.684,-2.913c-1.2,-0.383 -2.458,-0.683 -3.808,-0.895c-1.354,-0.213 -2.621,-0.375 -3.817,-0.492c-0.637,0 -1.112,-0.254 -1.404,-0.763c-0.3,-0.516 -0.45,-1.095 -0.45,-1.741c0,-0.709 0.159,-1.338 0.488,-1.904c0.329,-0.563 0.775,-0.85 1.366,-0.85c3.684,0 7.017,0.083 10.042,0.25c2.971,0.158 6.475,0.233 10.525,0.233l59.5,0Z" style="fill:#434244;fill-rule:nonzero;"/><path d="M1136.76,169.702c0,2.854 0.779,4.529 2.35,5.013c1.617,0.479 4.034,0.725 7.284,0.725c4.312,0 7.933,-0.413 10.837,-1.255c2.913,-0.841 5.25,-2.212 7.004,-4.125c1.763,-1.925 3.004,-4.408 3.721,-7.454c0.733,-3.05 1.104,-6.783 1.104,-11.212c0,-4.259 -0.404,-7.854 -1.175,-10.759c-0.792,-2.916 -2.033,-5.258 -3.725,-7.041c-1.7,-1.788 -3.942,-3.063 -6.725,-3.85c-2.779,-0.779 -6.137,-1.171 -10.071,-1.171c-4.375,0 -7.233,0.562 -8.587,1.704c-1.346,1.025 -2.017,3.258 -2.017,6.717l0,32.708Zm-18.058,-19.742c0,-2.37 -0.075,-4.737 -0.238,-7.087c-0.171,-2.342 -0.541,-4.529 -1.137,-6.525c-0.596,-1.996 -1.45,-3.704 -2.592,-5.138c-1.129,-1.429 -2.7,-2.42 -4.687,-2.954c-1.192,-0.383 -2.467,-0.683 -3.809,-0.896c-1.346,-0.212 -2.625,-0.379 -3.808,-0.491c-0.696,0 -1.213,-0.259 -1.542,-0.813c-0.316,-0.533 -0.475,-1.125 -0.475,-1.771c0,-0.645 0.159,-1.258 0.475,-1.825c0.329,-0.562 0.846,-0.85 1.542,-0.85c1.892,0 3.65,0.03 5.308,0.08c1.642,0.058 3.225,0.137 4.738,0.245c1.504,0.109 3.146,0.188 4.896,0.246c1.754,0.05 3.616,0.079 5.625,0.079c3.345,-0.05 6.383,-0.104 9.104,-0.166c2.721,-0.05 5.166,-0.129 7.325,-0.238c4.371,-0.166 8.55,-0.246 12.55,-0.246c4.466,0 8.862,0.534 13.158,1.58c4.283,1.045 8.117,2.75 11.483,5.1c3.371,2.354 6.088,5.37 8.146,9.066c2.042,3.7 3.075,8.213 3.075,13.554c0,4.213 -0.646,7.867 -1.908,10.975c-1.275,3.105 -3.021,5.763 -5.258,7.98c-2.255,2.204 -4.871,4.004 -7.892,5.379c-3.033,1.375 -6.321,2.429 -9.879,3.196c-0.759,0.212 -1.138,0.583 -1.138,1.087c0,0.508 0.379,0.988 1.138,1.425c3.45,1.729 6.371,3.554 8.746,5.496c2.37,1.942 4.35,3.971 5.945,6.075c1.592,2.104 2.863,4.267 3.813,6.471c0.942,2.216 1.721,4.462 2.342,6.712c0.62,2.279 1.145,4.571 1.57,6.884c0.442,2.333 0.93,4.595 1.463,6.804c0.546,2.591 1.462,4.45 2.75,5.583c1.304,1.138 2.592,1.713 3.887,1.713c1.342,0 2.634,-0.542 3.842,-1.63c1.217,-1.075 2.15,-2.754 2.792,-5.016c0.162,-0.759 0.462,-1.271 0.891,-1.546c0.438,-0.267 0.925,-0.4 1.463,-0.4c0.817,0 1.567,0.271 2.275,0.812c0.692,0.542 0.992,1.134 0.875,1.784c-0.317,2.746 -1.083,5.116 -2.308,7.116c-1.209,2.005 -2.7,3.65 -4.446,4.942c-1.759,1.3 -3.7,2.233 -5.834,2.838c-2.129,0.587 -4.25,0.883 -6.345,0.883c-1.784,0 -3.48,-0.183 -5.105,-0.563c-1.612,-0.379 -3.12,-0.962 -4.495,-1.75c-1.38,-0.779 -2.559,-1.716 -3.567,-2.825c-0.988,-1.104 -1.733,-2.395 -2.213,-3.841c-0.708,-1.838 -1.366,-3.863 -1.983,-6.075c-0.629,-2.209 -1.217,-4.454 -1.783,-6.717c-0.559,-2.267 -1.109,-4.462 -1.625,-6.6c-0.509,-2.137 -0.984,-4.058 -1.404,-5.787c-2.063,-7.071 -4.642,-12.142 -7.784,-15.221c-3.129,-3.129 -7.491,-4.696 -13.1,-4.696c-1.9,0 -3.508,0.392 -4.825,1.171c-1.325,0.796 -1.979,2.354 -1.979,4.675l0,22.379c0,3.717 0.383,6.746 1.167,9.046c0.779,2.287 1.95,4.087 3.496,5.391c1.525,1.296 3.429,2.213 5.695,2.75c2.271,0.546 4.888,0.925 7.846,1.13c0.704,0 1.225,0.304 1.588,0.891c0.341,0.579 0.516,1.213 0.516,1.904c0,0.696 -0.183,1.317 -0.558,1.875c-0.383,0.563 -0.942,0.842 -1.704,0.842c-2.75,0 -5.325,-0.071 -7.725,-0.2c-2.4,-0.129 -4.688,-0.287 -6.85,-0.45c-2.15,-0.167 -4.246,-0.312 -6.271,-0.446c-2.021,-0.133 -4.025,-0.2 -6.025,-0.2c-4.208,0 -8.346,0.213 -12.421,0.646c-4.083,0.429 -8.054,0.65 -11.95,0.65c-0.641,0 -1.141,-0.279 -1.496,-0.842c-0.35,-0.558 -0.525,-1.204 -0.525,-1.945c0,-0.646 0.15,-1.23 0.446,-1.763c0.296,-0.529 0.825,-0.846 1.575,-0.962c3.134,-0.317 5.679,-0.759 7.654,-1.325c1.967,-0.575 3.505,-1.446 4.617,-2.646c1.104,-1.179 1.858,-2.8 2.258,-4.85c0.409,-2.059 0.609,-4.696 0.609,-7.946l0,-62.213Z" style="fill:#434244;fill-rule:nonzero;"/><path d="M1337.19,122.093c0.962,0 1.8,0.117 2.5,0.329c0.862,0.271 1.187,1.158 0.979,2.667c-0.117,1.246 -0.192,2.541 -0.246,3.887c-0.054,1.359 -0.083,2.779 -0.083,4.296l0,2.825c0.104,4.213 0.27,8.046 0.483,11.496c0,0.487 -0.279,0.879 -0.846,1.175c-0.558,0.296 -1.204,0.446 -1.908,0.446c-0.588,0 -1.159,-0.121 -1.692,-0.363c-0.55,-0.246 -0.887,-0.658 -1.05,-1.258c-0.754,-4.317 -1.512,-7.692 -2.271,-10.117c-0.758,-2.421 -1.841,-4.25 -3.241,-5.454c-1.4,-1.221 -3.271,-1.987 -5.634,-2.312c-2.333,-0.321 -5.454,-0.542 -9.346,-0.65l-9.954,0c-2.862,0 -5.158,0.05 -6.916,0.162c-1.755,0.108 -3.113,0.504 -4.088,1.208c-0.979,0.713 -1.621,1.83 -1.946,3.359c-0.321,1.546 -0.479,3.716 -0.479,6.521l0,30.345c0,1.525 0.271,2.48 0.804,2.884c0.542,0.408 1.079,0.608 1.621,0.608c5.129,0 9.146,-0.237 12.063,-0.683c2.912,-0.467 5.116,-1.259 6.6,-2.392c1.483,-1.133 2.479,-2.667 2.991,-4.617c0.521,-1.945 0.934,-4.37 1.254,-7.283c0.113,-0.65 0.446,-1.125 1.063,-1.462c0.587,-0.321 1.237,-0.48 1.933,-0.48c0.65,0 1.225,0.159 1.746,0.48c0.5,0.337 0.758,0.812 0.758,1.462c0,1.783 -0.054,3.375 -0.154,4.779c-0.116,1.4 -0.229,2.792 -0.366,4.163c-0.138,1.383 -0.255,2.821 -0.363,4.333c-0.112,1.513 -0.167,3.242 -0.167,5.183c0,3.284 0.167,6.313 0.492,9.063c0.217,1.354 0.358,2.846 0.438,4.492c0.083,1.641 0.12,3.416 0.12,5.295c0,0.6 -0.233,1.017 -0.683,1.259c-0.458,0.241 -0.983,0.366 -1.575,0.366c-0.708,0 -1.4,-0.162 -2.067,-0.491c-0.679,-0.321 -1.062,-0.796 -1.175,-1.454c-0.32,-3.238 -0.733,-5.838 -1.254,-7.805c-0.512,-1.975 -1.508,-3.5 -2.991,-4.579c-1.484,-1.079 -3.688,-1.787 -6.6,-2.146c-2.917,-0.345 -6.934,-0.529 -12.063,-0.529c-0.542,0 -1.079,0.2 -1.621,0.579c-0.533,0.38 -0.804,1.184 -0.804,2.425l0,26.517c0,3.838 0.304,6.879 0.929,9.125c0.621,2.246 1.663,3.996 3.154,5.258c1.492,1.28 3.442,2.171 5.871,2.684c2.421,0.508 5.446,0.937 9.067,1.254c0.758,0 1.312,0.275 1.65,0.8c0.358,0.533 0.533,1.146 0.533,1.837c0,0.742 -0.204,1.405 -0.604,1.996c-0.412,0.584 -0.992,0.875 -1.737,0.875c-2.98,0 -5.725,-0.058 -8.263,-0.162c-2.542,-0.109 -4.883,-0.263 -7.037,-0.488c-2.163,-0.212 -4.267,-0.383 -6.313,-0.491c-2.062,-0.1 -4.075,-0.155 -6.079,-0.155c-4.204,0 -8.346,0.213 -12.421,0.646c-4.079,0.434 -8.054,0.65 -11.929,0.65c-0.658,0 -1.163,-0.279 -1.508,-0.841c-0.35,-0.559 -0.534,-1.205 -0.534,-1.946c0,-0.642 0.154,-1.229 0.442,-1.759c0.308,-0.533 0.833,-0.85 1.6,-0.962c3.112,-0.317 5.662,-0.763 7.637,-1.329c1.959,-0.571 3.509,-1.446 4.613,-2.646c1.108,-1.179 1.862,-2.8 2.267,-4.85c0.4,-2.054 0.608,-4.696 0.608,-7.946l0,-62.375c0,-2.433 -0.075,-4.812 -0.246,-7.167c-0.158,-2.345 -0.537,-4.504 -1.129,-6.483c-0.592,-1.967 -1.458,-3.667 -2.596,-5.104c-1.129,-1.425 -2.708,-2.438 -4.696,-3.042c-1.187,-0.321 -2.454,-0.583 -3.791,-0.804c-1.363,-0.212 -2.63,-0.371 -3.821,-0.483c-0.696,0 -1.209,-0.275 -1.538,-0.817c-0.316,-0.533 -0.483,-1.125 -0.483,-1.779c0,-0.646 0.167,-1.25 0.483,-1.821c0.329,-0.567 0.842,-0.846 1.538,-0.846c1.896,0 3.658,0.029 5.304,0.084c1.654,0.054 3.233,0.133 4.75,0.237c1.5,0.113 3.129,0.192 4.883,0.246c1.754,0.05 3.625,0.075 5.629,0.075l59.505,0Z" style="fill:#434244;fill-rule:nonzero;"/><path d="M1394.75,187.904c1.508,0 2.554,-0.25 3.121,-0.763c0.567,-0.512 0.571,-1.421 0.033,-2.721l-14.479,-38.77c-0.221,-0.588 -0.65,-0.888 -1.292,-0.888c-0.65,0 -1.087,0.3 -1.304,0.888l-15.137,38.77c-0.542,1.405 -0.604,2.346 -0.159,2.792c0.425,0.463 1.271,0.692 2.505,0.692l26.712,0Zm-28.567,6.479c-1.516,0 -2.612,0.246 -3.283,0.729c-0.675,0.488 -1.292,1.35 -1.821,2.592l-7.441,19.566c-0.592,1.784 -0.9,3.042 -0.9,3.8c0,1.417 0.366,2.609 1.095,3.58c0.734,0.97 1.7,1.758 2.909,2.354c1.216,0.591 2.616,1.041 4.171,1.341c1.562,0.288 3.166,0.5 4.779,0.596c0.808,0 1.383,0.304 1.696,0.892c0.329,0.579 0.491,1.187 0.491,1.829c0,0.692 -0.162,1.325 -0.491,1.913c-0.313,0.587 -0.888,0.879 -1.696,0.879c-1.296,0 -2.729,-0.075 -4.288,-0.2c-1.571,-0.129 -3.162,-0.288 -4.821,-0.45c-1.65,-0.167 -3.304,-0.313 -4.975,-0.446c-1.683,-0.133 -3.27,-0.2 -4.77,-0.2c-2.859,0 -5.634,0.208 -8.3,0.646c-2.675,0.429 -5.55,0.65 -8.625,0.65c-0.646,0 -1.155,-0.317 -1.538,-0.963c-0.375,-0.629 -0.567,-1.325 -0.567,-2.066c0,-0.588 0.146,-1.121 0.45,-1.592c0.292,-0.488 0.784,-0.779 1.488,-0.892l2.517,-0.316c1.67,-0.38 3.162,-0.838 4.487,-1.375c1.325,-0.538 2.583,-1.338 3.771,-2.388c1.183,-1.058 2.312,-2.492 3.396,-4.3c1.075,-1.804 2.216,-4.171 3.4,-7.087l37.479,-94.371c0.321,-0.913 1.208,-1.371 2.667,-1.371c1.516,0 2.729,0.458 3.645,1.371c2.759,7.075 5.709,14.646 8.859,22.729c3.158,8.062 6.391,16.279 9.679,24.625c3.296,8.35 6.6,16.633 9.917,24.858c3.32,8.238 6.487,16.029 9.504,23.375c1.304,3.188 2.575,5.659 3.812,7.413c1.238,1.762 2.509,3.083 3.796,4.012c1.296,0.921 2.625,1.534 3.979,1.863c1.342,0.316 2.771,0.646 4.284,0.962c0.65,0.113 1.12,0.459 1.42,1.038c0.292,0.591 0.442,1.2 0.442,1.837c0,0.688 -0.133,1.309 -0.404,1.842c-0.271,0.521 -0.7,0.796 -1.304,0.796c-1.721,0 -3.434,-0.063 -5.134,-0.163c-1.691,-0.112 -3.383,-0.266 -5.062,-0.487c-1.613,-0.217 -3.346,-0.388 -5.171,-0.492c-1.837,-0.104 -3.787,-0.154 -5.829,-0.154c-4.696,0 -9.067,0.208 -13.117,0.646c-4.054,0.429 -7.954,0.65 -11.737,0.65c-0.759,0 -1.329,-0.292 -1.738,-0.879c-0.408,-0.588 -0.608,-1.28 -0.608,-2.08c0,-0.641 0.162,-1.191 0.479,-1.662c0.338,-0.488 0.896,-0.779 1.704,-0.892c3.779,-0.475 6.521,-1.158 8.267,-2.021c1.775,-0.862 2.662,-2.7 2.662,-5.52c0,-0.75 -0.087,-1.634 -0.245,-2.63c-0.155,-1.004 -0.513,-2.379 -1.055,-4.104c-0.537,-1.725 -1.3,-3.95 -2.3,-6.65c-1,-2.708 -2.341,-6.146 -4.004,-10.312c-0.541,-1.454 -1.291,-2.371 -2.237,-2.754c-0.942,-0.375 -2.454,-0.567 -4.567,-0.567l-29.217,0Z" style="fill:#434244;fill-rule:nonzero;"/><path d="M1510.41,118.775c4.963,0 9.559,0.613 13.759,1.825c4.216,1.213 8.379,2.821 12.462,4.813c1.196,0.542 2.317,1.054 3.371,1.537c1.054,0.488 1.946,0.73 2.712,0.73c1.779,0 2.925,-1.055 3.475,-3.155c0.117,-0.433 0.484,-0.75 1.096,-0.97c0.621,-0.213 1.238,-0.3 1.859,-0.246c0.62,0.058 1.145,0.196 1.575,0.408c0.437,0.217 0.6,0.571 0.487,1.058c-0.433,1.721 -0.721,3.53 -0.883,5.417c-0.159,1.892 -0.242,3.838 -0.242,5.829c0,3.075 0.208,6.167 0.638,9.267c0.437,3.104 0.87,6.3 1.308,9.6c0,0.417 -0.25,0.787 -0.738,1.087c-0.487,0.3 -1.1,0.467 -1.816,0.525c-0.729,0.05 -1.438,-0.025 -2.109,-0.241c-0.666,-0.217 -1.058,-0.625 -1.175,-1.213c-2.754,-9.929 -7.22,-17.241 -13.387,-21.946c-6.188,-4.687 -13.971,-7.041 -23.354,-7.041c-7.296,0 -13.321,1.558 -18.1,4.658c-4.771,3.104 -8.571,7.063 -11.367,11.867c-2.813,4.804 -4.775,10.154 -5.875,16.054c-1.096,5.917 -1.654,11.679 -1.654,17.287c0,6.209 0.662,12.396 1.979,18.58c1.321,6.175 3.479,11.766 6.475,16.758c2.992,4.992 6.892,9.05 11.696,12.175c4.8,3.137 10.633,4.7 17.487,4.7c5.284,0 10.034,-0.458 14.242,-1.375c4.208,-0.917 7.75,-2.642 10.612,-5.183c3.555,-3.238 6.384,-7.096 8.492,-11.571c2.104,-4.479 3.592,-9.529 4.454,-15.15c0.109,-0.796 0.459,-1.317 1.054,-1.538c0.588,-0.204 1.234,-0.225 1.905,-0.066c0.67,0.158 1.295,0.466 1.858,0.925c0.563,0.458 0.767,0.908 0.604,1.333c-0.329,2.221 -0.529,4.4 -0.641,6.558c-0.109,2.163 -0.159,4.346 -0.159,6.563c0,3.721 0.138,7.554 0.392,11.491c0.279,3.934 0.55,8.063 0.812,12.38c0,0.654 -0.22,1.133 -0.679,1.462c-0.462,0.325 -0.991,0.513 -1.583,0.571c-0.588,0.046 -1.179,-0.058 -1.738,-0.321c-0.57,-0.283 -0.912,-0.679 -1.016,-1.225c-0.213,-1.017 -0.588,-1.996 -1.134,-2.904c-0.537,-0.917 -1.25,-1.692 -2.15,-2.317c-0.883,-0.621 -1.904,-0.925 -3.066,-0.925c-1.159,0 -2.467,0.375 -3.925,1.134c-2.438,1.345 -4.784,2.491 -7.046,3.445c-2.271,0.934 -4.558,1.675 -6.888,2.213c-2.312,0.542 -4.741,0.925 -7.279,1.146c-2.533,0.2 -5.291,0.316 -8.258,0.316c-19.579,0 -34.1,-4.883 -43.546,-14.654c-9.437,-9.766 -14.167,-23.766 -14.167,-42.004c0,-9.721 1.496,-18.312 4.496,-25.779c2.992,-7.483 7.104,-13.729 12.342,-18.746c5.233,-5.017 11.462,-8.804 18.704,-11.333c7.229,-2.534 15.113,-3.809 23.629,-3.809" style="fill:#434244;fill-rule:nonzero;"/><path d="M1580.83,147.029c-0.001,-3.454 -0.184,-6.392 -0.555,-8.825c-0.391,-2.421 -1.129,-4.413 -2.229,-5.946c-1.112,-1.538 -2.696,-2.729 -4.746,-3.567c-2.041,-0.837 -4.766,-1.358 -8.166,-1.579c-0.654,0 -1.154,-0.3 -1.509,-0.9c-0.345,-0.6 -0.52,-1.246 -0.52,-1.933c0,-0.684 0.175,-1.292 0.52,-1.846c0.355,-0.542 0.855,-0.825 1.509,-0.825c3.495,0 7.525,0.167 12.05,0.483c4.525,0.329 8.787,0.492 12.75,0.492c2.312,0 4.487,-0.05 6.533,-0.163c2.05,-0.112 4.025,-0.208 5.938,-0.329c1.916,-0.096 3.87,-0.204 5.862,-0.316c2.004,-0.109 4.154,-0.167 6.483,-0.167c0.692,0 1.188,0.283 1.459,0.825c0.271,0.554 0.375,1.162 0.325,1.846c-0.054,0.687 -0.259,1.333 -0.609,1.933c-0.354,0.6 -0.804,0.9 -1.337,0.9c-3.409,0.221 -6.159,0.692 -8.25,1.413c-2.113,0.745 -3.725,1.845 -4.821,3.329c-1.104,1.483 -1.825,3.433 -2.15,5.862c-0.317,2.434 -0.483,5.538 -0.483,9.313l0,64.996c0,3.625 0.216,6.45 0.637,8.508c0.442,2.05 1.238,3.625 2.396,4.729c1.158,1.108 2.796,1.913 4.9,2.438c2.1,0.512 4.8,0.925 8.096,1.241c0.696,0.113 1.233,0.459 1.621,1.038c0.366,0.591 0.566,1.216 0.566,1.883c0,0.671 -0.2,1.263 -0.566,1.796c-0.388,0.521 -0.975,0.796 -1.784,0.796c-4.433,0 -8.646,-0.221 -12.662,-0.65c-4.021,-0.438 -8.013,-0.646 -11.988,-0.646c-4.191,0 -8.516,0.208 -13,0.646c-4.466,0.429 -8.521,0.65 -12.133,0.65c-0.7,0 -1.213,-0.275 -1.533,-0.796c-0.33,-0.533 -0.484,-1.125 -0.484,-1.796c0,-0.667 0.154,-1.292 0.484,-1.883c0.32,-0.579 0.833,-0.925 1.533,-1.038c3.396,-0.316 6.121,-0.729 8.179,-1.241c2.042,-0.525 3.65,-1.33 4.817,-2.438c1.154,-1.104 1.921,-2.679 2.312,-4.729c0.371,-2.058 0.554,-4.883 0.554,-8.508l0,-64.996Z" style="fill:#434244;fill-rule:nonzero;"/><path d="M1643.65,147.029c0,-3.454 -0.192,-6.379 -0.58,-8.784c-0.37,-2.4 -1.112,-4.395 -2.22,-5.987c-1.105,-1.596 -2.684,-2.792 -4.738,-3.6c-2.046,-0.813 -4.771,-1.325 -8.175,-1.546c-0.704,0 -1.217,-0.271 -1.537,-0.817c-0.313,-0.55 -0.488,-1.179 -0.488,-1.891c0,-0.713 0.175,-1.35 0.488,-1.929c0.32,-0.575 0.833,-0.867 1.537,-0.867c3.513,0 7.529,0.167 12.067,0.483c4.521,0.329 8.771,0.492 12.746,0.492c2.308,0 4.491,-0.05 6.529,-0.163c2.041,-0.112 4.037,-0.208 5.975,-0.329c1.941,-0.096 3.916,-0.204 5.912,-0.316c1.996,-0.109 4.129,-0.167 6.392,-0.167c0.65,0 1.1,0.262 1.383,0.787c0.267,0.513 0.392,1.08 0.392,1.684c0,0.766 -0.163,1.462 -0.517,2.096c-0.358,0.625 -0.825,0.937 -1.425,0.937c-3.446,0.221 -6.212,0.688 -8.291,1.379c-2.08,0.7 -3.655,1.8 -4.721,3.317c-1.096,1.508 -1.804,3.492 -2.154,5.946c-0.359,2.458 -0.534,5.537 -0.534,9.254l0,57.679c0,3.496 0.167,6.45 0.496,8.846c0.313,2.4 0.925,4.387 1.817,5.954c0.891,1.554 2.087,2.821 3.596,3.758c1.516,0.938 3.458,1.717 5.833,2.309c1.562,0.321 3.304,0.562 5.225,0.725c1.917,0.154 3.921,0.237 6.025,0.237c3.883,0 7.254,-0.341 10.125,-1.008c2.858,-0.667 5.337,-1.888 7.437,-3.642c2.1,-1.75 3.913,-4.158 5.43,-7.204c1.508,-3.05 2.854,-6.946 4.041,-11.7c0.113,-0.596 0.479,-1.012 1.1,-1.254c0.621,-0.242 1.3,-0.358 2.063,-0.358c0.812,0 1.537,0.137 2.183,0.445c0.646,0.292 0.917,0.734 0.817,1.321c-0.55,4.709 -1.046,9.496 -1.504,14.375c-0.459,4.884 -0.642,9.429 -0.517,13.638c0,0.158 -0.054,0.379 -0.129,0.65c-0.084,0.271 -0.259,0.533 -0.525,0.762c-0.275,0.25 -0.659,0.467 -1.171,0.654c-0.525,0.184 -1.183,0.284 -1.996,0.284l-60.096,0c-4.346,0 -8.496,0.133 -12.421,0.408c-3.945,0.275 -7.862,0.504 -11.745,0.725c-0.75,0 -1.33,-0.258 -1.738,-0.792c-0.404,-0.537 -0.6,-1.15 -0.6,-1.837c0,-0.696 0.196,-1.317 0.6,-1.875c0.408,-0.563 0.988,-0.892 1.738,-1c3.404,-0.438 6.145,-0.883 8.212,-1.363c2.083,-0.495 3.688,-1.291 4.833,-2.395c1.121,-1.109 1.88,-2.688 2.25,-4.738c0.388,-2.05 0.58,-4.862 0.58,-8.421l0,-65.162Z" style="fill:#434244;fill-rule:nonzero;"/><path d="M1744.26,147.029c0,-3.454 -0.187,-6.392 -0.571,-8.825c-0.375,-2.421 -1.125,-4.413 -2.22,-5.946c-1.1,-1.538 -2.684,-2.729 -4.734,-3.567c-2.05,-0.837 -4.775,-1.358 -8.183,-1.579c-0.642,0 -1.146,-0.3 -1.488,-0.9c-0.358,-0.6 -0.533,-1.246 -0.533,-1.933c0,-0.684 0.175,-1.292 0.533,-1.846c0.342,-0.542 0.846,-0.825 1.488,-0.825c3.512,0 7.533,0.167 12.062,0.483c4.53,0.329 8.784,0.492 12.763,0.492c2.3,0 4.475,-0.05 6.517,-0.163c2.045,-0.112 4.029,-0.208 5.941,-0.329c1.913,-0.096 3.867,-0.204 5.863,-0.316c2.008,-0.109 4.166,-0.167 6.487,-0.167c0.692,0 1.184,0.283 1.459,0.825c0.266,0.554 0.366,1.162 0.316,1.846c-0.05,0.687 -0.254,1.333 -0.608,1.933c-0.35,0.6 -0.796,0.9 -1.333,0.9c-3.396,0.221 -6.155,0.692 -8.255,1.413c-2.112,0.745 -3.708,1.845 -4.816,3.329c-1.109,1.483 -1.829,3.433 -2.15,5.862c-0.321,2.434 -0.479,5.538 -0.479,9.313l0,64.996c0,3.625 0.22,6.45 0.641,8.508c0.434,2.05 1.229,3.625 2.392,4.729c1.154,1.108 2.796,1.913 4.892,2.438c2.104,0.512 4.804,0.925 8.1,1.241c0.695,0.113 1.245,0.459 1.616,1.038c0.379,0.591 0.571,1.216 0.571,1.883c0,0.671 -0.192,1.263 -0.571,1.796c-0.371,0.521 -0.966,0.796 -1.775,0.796c-4.437,0 -8.646,-0.221 -12.666,-0.65c-4.017,-0.438 -8.013,-0.646 -11.988,-0.646c-4.192,0 -8.529,0.208 -13,0.646c-4.471,0.429 -8.525,0.65 -12.137,0.65c-0.696,0 -1.213,-0.275 -1.534,-0.796c-0.329,-0.533 -0.487,-1.125 -0.487,-1.796c0,-0.667 0.158,-1.292 0.487,-1.883c0.321,-0.579 0.838,-0.925 1.534,-1.038c3.408,-0.316 6.129,-0.729 8.183,-1.241c2.05,-0.525 3.646,-1.33 4.808,-2.438c1.163,-1.104 1.929,-2.679 2.304,-4.729c0.384,-2.058 0.571,-4.883 0.571,-8.508l0,-64.996Z" style="fill:#434244;fill-rule:nonzero;"/><path d="M1847.06,212.015c0,3.625 0.163,6.463 0.492,8.504c0.312,2.042 1.071,3.638 2.216,4.742c1.159,1.108 2.805,1.912 4.9,2.437c2.105,0.513 4.942,0.925 8.505,1.242c0.645,0.117 1.162,0.463 1.537,1.038c0.375,0.591 0.567,1.216 0.567,1.883c0,0.671 -0.192,1.262 -0.567,1.796c-0.375,0.525 -0.946,0.796 -1.704,0.796c-4.421,0 -8.658,-0.221 -12.704,-0.65c-4.046,-0.434 -8.046,-0.646 -11.988,-0.646c-4.196,0 -8.541,0.212 -13.033,0.646c-4.475,0.429 -8.542,0.65 -12.213,0.65c-0.645,0 -1.137,-0.271 -1.462,-0.796c-0.325,-0.534 -0.488,-1.125 -0.488,-1.796c0,-0.667 0.163,-1.292 0.488,-1.883c0.325,-0.575 0.817,-0.921 1.462,-1.038c3.446,-0.317 6.18,-0.729 8.221,-1.242c2.013,-0.525 3.604,-1.329 4.771,-2.437c1.158,-1.104 1.938,-2.7 2.35,-4.742c0.396,-2.041 0.604,-4.879 0.604,-8.504l0,-73.725c0,-4.046 -1.033,-6.6 -3.079,-7.646c-2.046,-1.058 -5.508,-1.587 -10.362,-1.587c-4.1,0 -7.471,0.296 -10.121,0.896c-2.638,0.591 -4.817,1.7 -6.55,3.32c-1.738,1.617 -3.113,3.792 -4.175,6.55c-1.042,2.759 -2.004,6.346 -2.875,10.767c-0.109,0.642 -0.475,1.079 -1.088,1.296c-0.621,0.225 -1.229,0.296 -1.825,0.242c-0.6,-0.055 -1.129,-0.242 -1.616,-0.567c-0.484,-0.329 -0.721,-0.7 -0.721,-1.138c0.425,-4.1 0.671,-8.275 0.721,-12.541c0.054,-4.259 -0.184,-8.471 -0.721,-12.629c0,-1.234 0.766,-2.075 2.308,-2.513c1.533,-0.433 3.25,-0.646 5.125,-0.646l88.646,0c2.1,0 3.85,0.196 5.217,0.567c1.379,0.375 2.07,1.192 2.07,2.429c-0.216,1.296 -0.412,2.913 -0.575,4.863c-0.154,1.945 -0.237,4.075 -0.237,6.391c0,2.317 0.083,4.696 0.237,7.125c0.163,2.425 0.359,4.746 0.575,6.954c0,0.438 -0.283,0.838 -0.812,1.225c-0.538,0.371 -1.146,0.6 -1.821,0.68c-0.679,0.087 -1.312,0 -1.904,-0.238c-0.6,-0.246 -0.95,-0.696 -1.05,-1.337c-0.646,-4.43 -1.533,-8.038 -2.633,-10.85c-1.096,-2.805 -2.571,-5.013 -4.413,-6.63c-1.837,-1.62 -4.071,-2.729 -6.721,-3.32c-2.646,-0.6 -5.796,-0.896 -9.466,-0.896c-4.971,0 -8.559,0.529 -10.763,1.587c-2.217,1.046 -3.325,3.6 -3.325,7.646l0,73.725Z" style="fill:#434244;fill-rule:nonzero;"/><path d="M1955.46,212.19c0,3.621 0.229,6.454 0.679,8.504c0.462,2.05 1.266,3.621 2.437,4.729c1.159,1.109 2.779,1.921 4.896,2.434c2.113,0.512 4.8,0.929 8.1,1.25c0.642,0.112 1.158,0.454 1.563,1.054c0.416,0.567 0.612,1.192 0.612,1.862c0,0.663 -0.196,1.259 -0.612,1.796c-0.405,0.538 -0.98,0.792 -1.738,0.792c-4.417,0 -8.633,-0.229 -12.662,-0.721c-4.021,-0.483 -8.017,-0.733 -12.025,-0.733c-4.205,0 -8.555,0.25 -13.025,0.733c-4.475,0.492 -8.542,0.721 -12.142,0.721c-0.713,0 -1.225,-0.254 -1.546,-0.792c-0.329,-0.537 -0.492,-1.133 -0.492,-1.796c0,-0.67 0.163,-1.295 0.492,-1.862c0.321,-0.6 0.833,-0.942 1.546,-1.054c3.396,-0.321 6.121,-0.738 8.171,-1.25c2.054,-0.513 3.662,-1.325 4.816,-2.434c1.155,-1.108 1.93,-2.679 2.309,-4.729c0.383,-2.05 0.566,-4.883 0.566,-8.504l0,-21.687c-4.204,-7.559 -8.087,-14.655 -11.612,-21.296c-3.546,-6.642 -6.738,-12.525 -9.604,-17.646c-2.859,-5.121 -5.384,-9.458 -7.604,-12.996c-2.213,-3.529 -3.992,-6.029 -5.338,-7.479c-1.404,-1.513 -3.079,-2.442 -5.012,-2.796c-1.95,-0.358 -4.35,-0.737 -7.217,-1.175c-0.538,-0.108 -0.988,-0.437 -1.329,-0.987c-0.359,-0.546 -0.529,-1.159 -0.529,-1.85c0,-0.684 0.17,-1.292 0.529,-1.842c0.341,-0.546 0.791,-0.825 1.329,-0.825c4.429,0 8.571,0.162 12.437,0.483c3.85,0.329 7.671,0.492 11.446,0.492c4.046,0 8.113,-0.163 12.234,-0.492c4.091,-0.321 8.087,-0.483 11.97,-0.483c0.755,0 1.288,0.279 1.617,0.825c0.329,0.55 0.492,1.158 0.492,1.842c0,0.691 -0.192,1.304 -0.575,1.85c-0.371,0.55 -0.888,0.879 -1.534,0.987c-4.212,0.433 -7.175,1.146 -8.908,2.138c-1.729,1 -2.579,2.441 -2.579,4.333c0,2.096 1.05,5.133 3.154,9.129l19.746,37.592c0.312,0.533 0.787,0.796 1.408,0.796c0.621,0 1.096,-0.263 1.425,-0.796c3.067,-5.025 5.975,-9.942 8.7,-14.742c2.729,-4.8 5.096,-9.242 7.125,-13.317c2.013,-4.075 3.609,-7.637 4.779,-10.683c1.159,-3.042 1.738,-5.35 1.738,-6.917c0,-1.616 -0.242,-2.904 -0.733,-3.845c-0.484,-0.95 -1.217,-1.675 -2.23,-2.188c-0.991,-0.508 -2.175,-0.842 -3.554,-1.017c-1.379,-0.162 -2.896,-0.345 -4.579,-0.558c-0.637,-0.112 -1.096,-0.429 -1.375,-0.983c-0.262,-0.534 -0.404,-1.134 -0.404,-1.821c0,-0.667 0.162,-1.279 0.492,-1.813c0.32,-0.537 0.75,-0.812 1.287,-0.812c4.113,0 7.667,0.162 10.692,0.483c3.025,0.329 6.091,0.492 9.237,0.492c2.525,0 5.146,-0.163 7.834,-0.492c2.704,-0.321 5.675,-0.483 8.908,-0.483c0.646,0 1.108,0.279 1.392,0.825c0.25,0.55 0.395,1.158 0.395,1.842c0,0.691 -0.17,1.333 -0.483,1.933c-0.337,0.6 -0.821,0.904 -1.462,0.904c-4.1,0.321 -7.938,2.317 -11.5,5.983c-1.071,1.084 -2.696,3.342 -4.855,6.771c-2.162,3.425 -4.725,7.65 -7.72,12.704c-2.996,5.042 -6.35,10.663 -10.042,16.838c-3.7,6.179 -7.542,12.65 -11.533,19.387l0,23.392Z" style="fill:#434244;fill-rule:nonzero;"/><rect x="481.758" y="0" width="15.446" height="361.958" style="fill:#d23334;"/></svg>